<?xml version="1.0" standalone="no"?>
<!DOCTYPE svg PUBLIC "-//W3C//DTD SVG 20010904//EN"
 "http://www.w3.org/TR/2001/REC-SVG-20010904/DTD/svg10.dtd">
<svg version="1.0" xmlns="http://www.w3.org/2000/svg"
 width="411.000000pt" height="117.000000pt" viewBox="0 0 411.000000 117.000000"
 preserveAspectRatio="xMidYMid meet">

<g transform="translate(0.000000,117.000000) scale(0.100000,-0.100000)"
fill="#000000" stroke="none">
<path d="M585 1013 c0 -36 -32 -44 -44 -12 l-8 23 -12 -21 c-24 -46 -9 -93 38
-112 79 -33 148 85 78 134 -34 24 -53 19 -52 -12z"/>
<path d="M1260 911 c-77 -16 -131 -60 -164 -130 -30 -66 -30 -216 0 -282 43
-92 110 -131 228 -131 157 -1 236 75 236 227 l0 66 -117 -3 -118 -3 0 -30 0
-30 78 -3 77 -3 0 -30 c0 -77 -55 -119 -156 -119 -118 0 -166 52 -172 189 -3
76 -1 91 20 130 31 57 79 83 156 84 71 0 114 -21 136 -68 15 -30 22 -35 51
-35 29 0 35 4 35 20 0 49 -50 108 -112 134 -45 19 -131 27 -178 17z"/>
<path d="M714 875 c-19 -19 -40 -35 -45 -35 -6 0 -1 -9 12 -19 23 -19 23 -21
7 -37 -14 -14 -20 -15 -33 -4 -9 7 -13 21 -10 31 5 16 1 19 -25 19 -23 0 -30
-4 -28 -16 4 -23 -28 -42 -44 -26 -10 10 -10 17 1 34 14 23 13 24 -40 53 -33
18 -28 24 -114 -132 -36 -66 -77 -131 -90 -143 -33 -31 -84 -40 -131 -24 -36
13 -40 12 -56 -7 -20 -23 -11 -51 19 -64 74 -30 158 -21 215 25 22 18 49 30
66 30 26 0 33 8 62 63 72 135 73 136 132 135 66 -1 96 11 147 58 45 40 52 68
22 84 -27 14 -28 14 -67 -25z m66 -5 c0 -24 -26 -38 -42 -22 -16 16 -2 42 22
42 13 0 20 -7 20 -20z m-290 -23 c0 -2 -20 -39 -45 -83 -25 -43 -48 -89 -51
-101 -5 -20 -34 -34 -34 -17 0 11 71 147 92 177 16 22 38 36 38 24z m-125
-272 c0 -25 -40 -33 -49 -10 -9 24 2 37 27 33 14 -2 22 -10 22 -23z m-190 -30
c0 -21 -31 -33 -46 -18 -5 5 -7 17 -3 27 9 24 49 17 49 -9z m100 -20 c0 -22
-31 -33 -47 -17 -17 17 -1 44 24 40 15 -2 23 -10 23 -23z"/>
<path d="M1767 755 c-81 -28 -117 -86 -117 -188 0 -129 68 -198 194 -198 73 0
111 15 150 61 35 42 34 60 -3 60 -19 0 -40 -10 -59 -30 -27 -26 -37 -30 -87
-30 -51 0 -60 3 -91 34 -19 19 -34 43 -34 55 0 20 4 21 149 21 113 0 150 3
154 13 7 20 -4 99 -18 127 -39 75 -145 109 -238 75z m150 -71 c26 -16 45 -75
29 -86 -6 -4 -57 -8 -114 -8 -116 0 -127 7 -95 62 32 55 120 71 180 32z"/>
<path d="M2265 757 c-17 -8 -36 -21 -44 -30 -19 -23 -29 -21 -33 6 -2 17 -11
23 -36 25 l-32 3 2 -193 3 -193 32 -3 31 -3 4 136 3 137 33 29 c25 22 42 29
75 29 77 0 81 -8 87 -177 l5 -148 35 0 35 0 0 150 c0 160 -9 194 -57 224 -30
19 -109 23 -143 8z"/>
<path d="M2677 756 c-82 -30 -117 -88 -117 -188 1 -112 47 -176 142 -197 80
-18 155 4 202 59 36 44 34 60 -9 60 -19 0 -35 -5 -35 -10 0 -21 -65 -50 -112
-50 -38 0 -54 6 -77 28 -17 15 -33 39 -37 55 l-6 27 151 0 151 0 0 53 c0 62
-31 122 -75 149 -43 25 -131 32 -178 14z m148 -72 c24 -15 50 -72 39 -83 -7
-7 -191 -10 -217 -3 -15 3 -17 10 -12 30 9 35 24 52 60 69 35 15 96 10 130
-13z"/>
<path d="M314 366 c-110 -25 -235 -99 -247 -146 -3 -14 2 -29 14 -41 18 -18
37 -19 383 -19 318 0 367 2 380 16 35 34 9 75 -81 130 -50 30 -64 34 -100 29
-35 -5 -43 -3 -57 16 -14 21 -25 23 -123 26 -67 1 -131 -3 -169 -11z"/>
<path d="M3301 233 c-1 -34 3 -64 7 -67 5 -3 7 21 5 52 -6 81 -11 87 -12 15z"/>
<path d="M1138 273 c19 -4 22 -11 22 -54 0 -27 5 -49 10 -49 6 0 8 19 6 46 -4
39 -2 46 17 54 17 7 10 9 -28 8 -27 0 -40 -3 -27 -5z"/>
<path d="M1651 228 c-1 -31 3 -59 7 -62 5 -3 7 18 5 47 -6 75 -11 81 -12 15z"/>
<path d="M2221 223 c0 -35 2 -63 7 -63 4 0 6 21 4 48 -5 75 -10 82 -11 15z"/>
<path d="M3100 263 c-4 -55 -3 -93 2 -99 9 -8 14 84 6 104 -5 14 -7 13 -8 -5z"/>
<path d="M3704 226 c1 -43 5 -61 16 -64 12 -4 13 -2 3 9 -6 8 -14 37 -16 64
-4 45 -4 44 -3 -9z"/>
<path d="M3923 255 c-7 -16 -8 -27 -1 -31 5 -3 7 -17 4 -30 -4 -14 -2 -24 4
-24 5 0 10 24 10 55 0 30 -1 55 -2 55 -2 0 -8 -11 -15 -25z"/>
<path d="M1241 241 c-7 -5 -13 -21 -13 -36 0 -28 16 -45 42 -44 8 0 5 4 -7 9
-27 11 -30 27 -5 33 15 4 15 5 -1 6 -25 1 -16 26 9 26 12 0 18 -6 18 -17 -1
-10 3 -18 8 -18 5 0 8 10 6 23 -3 24 -33 33 -57 18z"/>
<path d="M1342 238 c-14 -14 -16 -54 -3 -62 5 -4 7 3 4 14 -8 30 15 52 46 45
20 -4 22 -3 11 5 -20 13 -43 13 -58 -2z"/>
<path d="M1487 239 c6 -8 13 -27 16 -44 4 -23 4 -20 3 9 -1 25 -6 41 -16 44
-12 4 -13 2 -3 -9z"/>
<path d="M1552 238 c-13 -13 -16 -54 -4 -61 4 -3 7 9 7 26 0 27 4 32 25 32 21
0 25 -5 25 -32 0 -17 3 -29 7 -26 12 7 9 48 -4 61 -7 7 -19 12 -28 12 -9 0
-21 -5 -28 -12z"/>
<path d="M1750 243 c0 -6 5 -15 11 -19 6 -3 8 -17 4 -31 -4 -16 -2 -22 5 -18
5 3 10 14 10 24 0 19 -29 63 -30 44z"/>
<path d="M1808 224 c-14 -30 -2 -57 28 -62 16 -3 16 -1 -3 13 -28 20 -29 29
-3 55 16 16 17 20 5 20 -9 0 -21 -12 -27 -26z"/>
<path d="M1975 240 c-4 -6 3 -9 16 -7 19 2 24 -3 26 -27 1 -16 7 -34 13 -40 8
-8 9 1 4 29 -3 22 -8 43 -11 48 -6 10 -41 9 -48 -3z"/>
<path d="M2125 241 c-4 -7 2 -10 16 -8 12 1 24 -3 26 -10 2 -7 -8 -13 -24 -15
-20 -2 -28 -9 -28 -22 0 -11 6 -20 13 -22 7 -1 8 0 2 3 -20 9 -10 33 14 33 16
0 26 -7 29 -22 10 -36 15 -16 8 27 -5 31 -11 41 -28 43 -11 2 -24 -2 -28 -7z"/>
<path d="M2320 240 c-12 -7 -12 -12 -2 -22 9 -9 12 -8 12 6 0 15 5 17 28 12
20 -5 23 -4 12 4 -19 12 -31 12 -50 0z"/>
<path d="M2422 238 c-15 -15 -16 -54 -2 -63 6 -4 9 -1 8 7 -2 8 9 14 30 16 17
2 32 9 32 16 0 17 -21 36 -40 36 -9 0 -21 -5 -28 -12z m52 -13 c4 -11 -2 -15
-26 -15 -26 0 -29 2 -18 15 7 8 18 15 25 15 7 0 15 -7 19 -15z"/>
<path d="M2748 239 c-20 -11 -24 -54 -8 -64 7 -4 9 2 5 17 -8 31 15 52 47 43
18 -5 20 -4 8 4 -19 13 -30 13 -52 0z"/>
<path d="M2898 239 c-10 -5 -18 -20 -18 -33 0 -13 8 -30 18 -37 14 -11 15 -11
5 1 -30 34 -7 77 35 64 14 -5 15 -4 2 5 -18 13 -20 13 -42 0z"/>
<path d="M3045 240 c-8 -13 5 -13 25 0 13 8 13 10 -2 10 -9 0 -20 -4 -23 -10z"/>
<path d="M3152 238 c-7 -7 -12 -22 -12 -34 0 -23 26 -51 37 -40 3 3 1 6 -5 6
-19 0 -14 28 6 33 16 4 16 5 0 6 -10 0 -18 8 -18 17 0 10 7 14 23 12 14 -2 21
-9 21 -21 -1 -9 2 -17 7 -17 13 0 11 24 -3 38 -7 7 -19 12 -28 12 -9 0 -21 -5
-28 -12z"/>
<path d="M3355 240 c-4 -7 2 -9 18 -5 30 8 44 -10 20 -24 -17 -10 -17 -10 1
-11 11 0 16 -5 13 -14 -3 -8 0 -17 8 -20 11 -4 12 3 8 32 -3 20 -11 40 -17 44
-16 11 -44 10 -51 -2z"/>
<path d="M3507 243 c-15 -14 -5 -32 24 -42 37 -13 29 -35 -10 -27 -21 5 -23 4
-8 -4 23 -15 59 -3 55 18 -2 9 -13 19 -26 22 -28 6 -29 25 -2 24 10 0 17 3 14
8 -6 10 -38 11 -47 1z"/>
<path d="M3610 240 c-12 -8 -10 -10 10 -8 19 2 25 -2 26 -19 2 -30 12 -53 23
-53 9 0 0 58 -13 79 -9 14 -26 14 -46 1z"/>
<path d="M3817 213 c-4 -21 -2 -42 3 -47 7 -7 10 7 10 37 0 57 -5 60 -13 10z"/>
<path d="M3873 243 c-12 -4 -19 -73 -9 -73 2 0 13 -3 23 -6 17 -5 17 -5 1 6
-10 6 -18 22 -18 35 0 13 8 29 18 34 17 11 7 13 -15 4z"/>
<path d="M1440 200 c0 -22 2 -40 4 -40 2 0 6 18 8 40 2 22 0 40 -4 40 -5 0 -8
-18 -8 -40z"/>
<path d="M1707 233 c-14 -13 -7 -61 9 -67 14 -5 15 -4 4 9 -7 8 -10 26 -8 40
6 27 5 29 -5 18z"/>
<path d="M1872 220 c9 -14 9 -23 2 -30 -12 -12 -6 -63 6 -55 4 2 8 27 9 55 1
39 -2 50 -14 50 -13 0 -13 -3 -3 -20z"/>
<path d="M1923 205 c0 -22 2 -30 4 -17 2 12 2 30 0 40 -3 9 -5 -1 -4 -23z"/>
<path d="M2520 203 c0 -43 5 -41 13 5 4 18 2 32 -3 32 -6 0 -10 -16 -10 -37z"/>
<path d="M2597 205 c9 -19 22 -35 29 -35 13 0 40 57 31 67 -4 3 -11 -7 -17
-23 -11 -28 -12 -28 -26 -10 -8 11 -14 23 -14 28 0 4 -4 8 -10 8 -5 0 -2 -16
7 -35z"/>
<path d="M2693 205 c0 -22 2 -30 4 -17 2 12 2 30 0 40 -3 9 -5 -1 -4 -23z"/>
<path d="M2843 205 c0 -22 2 -30 4 -17 2 12 2 30 0 40 -3 9 -5 -1 -4 -23z"/>
<path d="M3750 212 c0 -29 16 -52 35 -52 5 0 5 4 -2 8 -7 4 -13 22 -15 40 -3
39 -18 43 -18 4z"/>
<path d="M2951 204 c0 -11 3 -14 6 -6 3 7 2 16 -1 19 -3 4 -6 -2 -5 -13z"/>
<path d="M3031 205 c-1 -25 17 -45 39 -44 10 0 9 3 -5 8 -11 4 -23 19 -26 32
-6 21 -7 21 -8 4z"/>
<path d="M1963 195 c-3 -9 -3 -19 1 -22 3 -4 6 1 6 10 0 8 6 18 13 20 9 4 9 6
-1 6 -7 1 -15 -6 -19 -14z"/>
<path d="M2353 203 c19 -5 24 -33 5 -33 -6 0 -8 -3 -5 -6 4 -4 13 -1 22 6 18
15 3 41 -24 39 -13 -1 -13 -2 2 -6z"/>
<path d="M3352 188 c2 -14 11 -24 23 -25 17 -2 17 -1 2 3 -13 4 -17 12 -14 25
3 10 1 19 -5 19 -5 0 -8 -10 -6 -22z"/>
<path d="M3598 198 c-8 -20 2 -38 20 -38 13 0 13 2 -3 14 -18 13 -18 13 1 24
16 10 16 11 3 12 -9 0 -19 -6 -21 -12z"/>
<path d="M1380 170 c-8 -5 -10 -10 -5 -10 6 0 17 5 25 10 8 5 11 10 5 10 -5 0
-17 -5 -25 -10z"/>
<path d="M2775 170 c-16 -7 -17 -9 -3 -9 9 -1 20 4 23 9 7 11 7 11 -20 0z"/>
<path d="M1820 130 c8 -5 22 -9 30 -9 10 0 8 3 -5 9 -27 12 -43 12 -25 0z"/>
</g>
</svg>
